HIERARCHY
ROOT Hips
{
	OFFSET 0.000000 121.760803 0.000000
	CHANNELS 6 Xposition Yposition Zposition Xrotation Yrotation Zrotation 
	JOINT Spine
	{
		OFFSET 0.072000 7.257294 -0.789700
		CHANNELS 3 Xrotation Yrotation Zrotation
		JOINT Spine1
		{
			OFFSET 0.000000 12.508769 -0.658067
			CHANNELS 3 Xrotation Yrotation Zrotation
			JOINT Spine1_split
			{
				OFFSET 0.000000 12.508769 -0.658067
				CHANNELS 3 Xrotation Yrotation Zrotation
				JOINT Spine2
				{
					OFFSET 0.000000 12.508769 -0.658067
					CHANNELS 3 Xrotation Yrotation Zrotation
					JOINT Neck
					{
						OFFSET 0.000000 14.033295 7.520400
						CHANNELS 3 Xrotation Yrotation Zrotation
						JOINT Head
						{
							OFFSET 0.000000 8.198502 5.703100
							CHANNELS 3 Xrotation Yrotation Zrotation
							JOINT HeadTop_End
							{
								OFFSET 0.000000 17.760803 13.332701
								CHANNELS 3 Xrotation Yrotation Zrotation
								End Site
								{
									OFFSET 0.000000 0.000000 0.000000
								}
							}
						}
					}
					JOINT LeftShoulder
					{
						OFFSET 6.292450 5.785301 -0.669000
						CHANNELS 3 Xrotation Yrotation Zrotation
						JOINT LeftShoulder_split
						{
							OFFSET 6.292450 5.785301 -0.669000
							CHANNELS 3 Xrotation Yrotation Zrotation
							JOINT LeftArm
							{
								OFFSET 13.907140 -6.093903 1.965100
								CHANNELS 3 Xrotation Yrotation Zrotation
								JOINT LeftForeArm
								{
									OFFSET 34.140198 0.000000 0.000000
									CHANNELS 3 Xrotation Yrotation Zrotation
									JOINT LeftHand
									{
										OFFSET 40.960209 0.000000 0.000000
										CHANNELS 3 Xrotation Yrotation Zrotation
										JOINT LeftHandThumb1
										{
											OFFSET 10.006996 -7.170425 9.573125
											CHANNELS 3 Xrotation Yrotation Zrotation
											JOINT LeftHandThumb2
											{
												OFFSET 1.835007 -1.059448 1.059443
												CHANNELS 3 Xrotation Yrotation Zrotation
												JOINT LeftHandThumb3
												{
													OFFSET 2.112267 -1.219513 1.219518
													CHANNELS 3 Xrotation Yrotation Zrotation
													JOINT LeftHandThumb4
													{
														OFFSET 4.843811 -2.796570 2.796576
														CHANNELS 3 Xrotation Yrotation Zrotation
														End Site
														{
															OFFSET 0.000000 0.000000 0.000000
														}
													}
												}
											}
										}
										JOINT LeftHandIndex1
										{
											OFFSET 18.389847 -0.922348 4.596882
											CHANNELS 3 Xrotation Yrotation Zrotation
											JOINT LeftHandIndex2
											{
												OFFSET 4.711273 0.000000 0.000000
												CHANNELS 3 Xrotation Yrotation Zrotation
												JOINT LeftHandIndex3
												{
													OFFSET 2.886131 0.000000 0.000000
													CHANNELS 3 Xrotation Yrotation Zrotation
													JOINT LeftHandIndex4
													{
														OFFSET 6.145912 0.000000 0.000000
														CHANNELS 3 Xrotation Yrotation Zrotation
														End Site
														{
															OFFSET 0.000000 0.000000 0.000000
														}
													}
												}
											}
										}
										JOINT LeftHandMiddle1
										{
											OFFSET 18.013008 0.000000 0.000000
											CHANNELS 3 Xrotation Yrotation Zrotation
											JOINT LeftHandMiddle2
											{
												OFFSET 4.946693 0.000000 0.000000
												CHANNELS 3 Xrotation Yrotation Zrotation
												JOINT LeftHandMiddle3
												{
													OFFSET 3.342232 0.000000 0.000000
													CHANNELS 3 Xrotation Yrotation Zrotation
													JOINT LeftHandMiddle4
													{
														OFFSET 4.461754 0.000000 0.000000
														CHANNELS 3 Xrotation Yrotation Zrotation
														End Site
														{
															OFFSET 0.000000 0.000000 0.000000
														}
													}
												}
											}
										}
										JOINT LeftHandRing1
										{
											OFFSET 15.849892 -0.102921 -4.126150
											CHANNELS 3 Xrotation Yrotation Zrotation
											JOINT LeftHandRing2
											{
												OFFSET 3.527054 0.000000 0.000000
												CHANNELS 3 Xrotation Yrotation Zrotation
												JOINT LeftHandRing3
												{
													OFFSET 2.961098 0.000000 0.000000
													CHANNELS 3 Xrotation Yrotation Zrotation
													JOINT LeftHandRing4
													{
														OFFSET 4.927200 0.000000 0.000000
														CHANNELS 3 Xrotation Yrotation Zrotation
														End Site
														{
															OFFSET 0.000000 0.000000 0.000000
														}
													}
												}
											}
										}
										JOINT LeftHandPinky1
										{
											OFFSET 12.791824 -0.832031 -6.799156
											CHANNELS 3 Xrotation Yrotation Zrotation
											JOINT LeftHandPinky2
											{
												OFFSET 3.327133 0.000000 0.000000
												CHANNELS 3 Xrotation Yrotation Zrotation
												JOINT LeftHandPinky3
												{
													OFFSET 3.014900 0.000000 0.000000
													CHANNELS 3 Xrotation Yrotation Zrotation
													JOINT LeftHandPinky4
													{
														OFFSET 5.847786 0.000000 0.000000
														CHANNELS 3 Xrotation Yrotation Zrotation
														End Site
														{
															OFFSET 0.000000 0.000000 0.000000
														}
													}
												}
											}
										}
									}
								}
							}
						}
					}
					JOINT RightShoulder
					{
						OFFSET -6.292450 5.785301 -0.669000
						CHANNELS 3 Xrotation Yrotation Zrotation
						JOINT RightShoulder_split
						{
							OFFSET -6.292450 5.785301 -0.669000
							CHANNELS 3 Xrotation Yrotation Zrotation
							JOINT RightArm
							{
								OFFSET -13.907140 -6.093903 1.965100
								CHANNELS 3 Xrotation Yrotation Zrotation
								JOINT RightForeArm
								{
									OFFSET -34.140198 0.000000 0.000000
									CHANNELS 3 Xrotation Yrotation Zrotation
									JOINT RightHand
									{
										OFFSET -40.960209 0.000000 0.000000
										CHANNELS 3 Xrotation Yrotation Zrotation
										JOINT RightHandThumb1
										{
											OFFSET -10.007050 -7.170456 9.573117
											CHANNELS 3 Xrotation Yrotation Zrotation
											JOINT RightHandThumb2
											{
												OFFSET -1.835007 -1.059448 1.059443
												CHANNELS 3 Xrotation Yrotation Zrotation
												JOINT RightHandThumb3
												{
													OFFSET -2.112267 -1.219513 1.219518
													CHANNELS 3 Xrotation Yrotation Zrotation
													JOINT RightHandThumb4
													{
														OFFSET -4.843834 -2.796585 2.796590
														CHANNELS 3 Xrotation Yrotation Zrotation
														End Site
														{
															OFFSET 0.000000 0.000000 0.000000
														}
													}
												}
											}
										}
										JOINT RightHandIndex1
										{
											OFFSET -18.389870 -0.922424 4.596786
											CHANNELS 3 Xrotation Yrotation Zrotation
											JOINT RightHandIndex2
											{
												OFFSET -4.711273 0.000000 0.000000
												CHANNELS 3 Xrotation Yrotation Zrotation
												JOINT RightHandIndex3
												{
													OFFSET -2.886131 0.000000 0.000000
													CHANNELS 3 Xrotation Yrotation Zrotation
													JOINT RightHandIndex4
													{
														OFFSET -6.145920 0.000000 0.000000
														CHANNELS 3 Xrotation Yrotation Zrotation
														End Site
														{
															OFFSET 0.000000 0.000000 0.000000
														}
													}
												}
											}
										}
										JOINT RightHandMiddle1
										{
											OFFSET -18.013008 0.000000 0.000000
											CHANNELS 3 Xrotation Yrotation Zrotation
											JOINT RightHandMiddle2
											{
												OFFSET -4.946693 0.000000 0.000000
												CHANNELS 3 Xrotation Yrotation Zrotation
												JOINT RightHandMiddle3
												{
													OFFSET -3.342232 0.000000 0.000000
													CHANNELS 3 Xrotation Yrotation Zrotation
													JOINT RightHandMiddle4
													{
														OFFSET -4.461754 0.000000 0.000000
														CHANNELS 3 Xrotation Yrotation Zrotation
														End Site
														{
															OFFSET 0.000000 0.000000 0.000000
														}
													}
												}
											}
										}
										JOINT RightHandRing1
										{
											OFFSET -15.849876 -0.102936 -4.126237
											CHANNELS 3 Xrotation Yrotation Zrotation
											JOINT RightHandRing2
											{
												OFFSET -3.527054 0.000000 0.000000
												CHANNELS 3 Xrotation Yrotation Zrotation
												JOINT RightHandRing3
												{
													OFFSET -2.961098 0.000000 0.000000
													CHANNELS 3 Xrotation Yrotation Zrotation
													JOINT RightHandRing4
													{
														OFFSET -4.927200 0.000000 0.000000
														CHANNELS 3 Xrotation Yrotation Zrotation
														End Site
														{
															OFFSET 0.000000 0.000000 0.000000
														}
													}
												}
											}
										}
										JOINT RightHandPinky1
										{
											OFFSET -12.791786 -0.832077 -6.799222
											CHANNELS 3 Xrotation Yrotation Zrotation
											JOINT RightHandPinky2
											{
												OFFSET -3.327133 0.000000 0.000000
												CHANNELS 3 Xrotation Yrotation Zrotation
												JOINT RightHandPinky3
												{
													OFFSET -3.014900 0.000000 0.000000
													CHANNELS 3 Xrotation Yrotation Zrotation
													JOINT RightHandPinky4
													{
														OFFSET -5.847786 0.000000 0.000000
														CHANNELS 3 Xrotation Yrotation Zrotation
														End Site
														{
															OFFSET 0.000000 0.000000 0.000000
														}
													}
												}
											}
										}
									}
								}
							}
						}
					}
				}
			}
		}
	}
	JOINT LeftUpLeg
	{
		OFFSET 13.026900 -6.336304 -1.092800
		CHANNELS 3 Xrotation Yrotation Zrotation
		JOINT LeftLeg
		{
			OFFSET 0.524474 -46.096886 9.782700
			CHANNELS 3 Xrotation Yrotation Zrotation
			JOINT LeftFoot
			{
				OFFSET -0.524474 -53.427422 -12.948200
				CHANNELS 3 Xrotation Yrotation Zrotation
				JOINT LeftToeBase
				{
					OFFSET 0.192200 -14.009700 16.364100
					CHANNELS 3 Xrotation Yrotation Zrotation
					JOINT LeftToe_End
					{
						OFFSET -1.784700 -0.561700 9.474800
						CHANNELS 3 Xrotation Yrotation Zrotation
						End Site
						{
							OFFSET 0.000000 0.000000 0.000000
						}
					}
				}
			}
		}
	}
	JOINT RightUpLeg
	{
		OFFSET -12.883000 -6.336304 -1.092800
		CHANNELS 3 Xrotation Yrotation Zrotation
		JOINT RightLeg
		{
			OFFSET -0.524587 -46.096825 9.782800
			CHANNELS 3 Xrotation Yrotation Zrotation
			JOINT RightFoot
			{
				OFFSET 0.524587 -53.427383 -12.948300
				CHANNELS 3 Xrotation Yrotation Zrotation
				JOINT RightToeBase
				{
					OFFSET -0.192200 -14.009700 16.364100
					CHANNELS 3 Xrotation Yrotation Zrotation
					JOINT RightToe_End
					{
						OFFSET 1.784700 -0.561700 9.474800
						CHANNELS 3 Xrotation Yrotation Zrotation
						End Site
						{
							OFFSET 0.000000 0.000000 0.000000
						}
					}
				}
			}
		}
	}
}
MOTION
Frames: 5
Frame Time: 0.016667
0.372644 51.705887 -12.659952 0.293203 0.505586 0.850729 1.235314 0.475222 -0.096346 0.110009 0.122969 -0.090715 0.000000 0.000000 0.000000 0.108808 0.114775 -0.092286 -0.391164 0.001168 0.119094 -1.124861 0.498129 0.197438 0.000000 -0.000000 -0.000000 0.606873 -3.284650 -22.051944 0.000000 0.000000 0.000000 11.464581 -16.354594 -52.988526 -0.000001 -20.361386 0.000011 -6.670426 11.936418 -5.315181 -8.139812 -14.751884 10.508541 11.522782 33.951388 -1.839731 3.775263 9.818964 17.836003 0.000002 0.000000 -0.000003 -0.453778 -5.320373 -4.184397 0.332714 1.947933 -19.383541 0.050437 0.767895 -7.515335 -0.000001 -0.000001 -0.000000 -0.401514 -0.921336 -7.463552 1.036280 3.328482 -34.578007 0.002809 -0.181631 1.772749 0.000000 -0.000001 -0.000001 -0.149529 2.814367 -20.128147 0.105527 1.108095 -10.879701 0.129587 1.226662 -12.060775 -0.000001 -0.000000 0.000001 -7.736878 8.986372 -14.639674 0.589053 2.562159 -25.891229 0.348355 1.991822 -19.838699 0.000001 -0.000001 0.000004 -0.115224 9.903019 22.054928 0.000000 0.000000 0.000000 7.750432 7.038400 56.271951 -0.000008 19.886639 0.000048 -2.747040 -6.054065 1.890064 -17.666032 6.240250 -1.517378 -4.146461 -35.461396 -9.882272 3.008618 -18.516399 -20.364320 -0.000000 0.000003 -0.000003 13.894424 5.077791 9.899990 0.129270 -1.090761 13.516383 0.009172 0.292410 -3.591906 0.000001 -0.000000 0.000000 -0.138699 -1.041590 7.048797 0.785985 -2.591018 33.745379 0.123921 -1.068310 13.232921 0.000000 -0.000001 -0.000000 0.562748 -5.309928 11.245071 0.534002 -2.167229 27.680983 0.310750 -1.674292 21.027661 -0.000001 0.000003 0.000003 -12.301544 -16.678045 11.029500 0.315740 -1.687204 21.197736 0.313448 -1.681289 21.119773 0.000001 -0.000000 0.000004 -15.162513 -3.896474 15.034711 104.671563 8.001987 1.454213 30.191454 -2.470987 -18.900431 13.512707 3.490025 15.852493 0.000003 -0.000001 0.000001 -13.020884 -0.535415 -14.589871 105.033099 0.639893 -0.541009 22.700282 1.934619 14.123422 -22.444813 -1.826190 -13.640878 0.000000 -0.000001 0.000000 
0.373829 51.704742 -12.671797 0.300513 0.427649 0.744099 1.201389 0.490602 -0.089315 0.052092 0.122970 -0.079783 0.000000 0.000000 0.000000 0.095956 0.114775 -0.080994 -0.228473 -0.005408 0.129676 0.329910 0.494719 0.033181 -0.000000 0.000000 0.000000 0.608520 -3.276007 -22.034009 0.000000 0.000000 0.000000 11.676376 -16.033987 -52.975429 0.000001 -20.991224 -0.000001 -6.051222 11.322431 -4.940442 -8.139810 -14.751875 10.508571 11.522784 33.951371 -1.839753 3.775275 9.818954 17.835962 0.000002 0.000001 -0.000001 -0.453769 -5.320381 -4.184391 0.332711 1.947934 -19.383537 0.050432 0.767895 -7.515367 -0.000001 -0.000000 -0.000001 -0.401510 -0.921342 -7.463561 1.036268 3.328483 -34.578014 0.002814 -0.181635 1.772751 -0.000000 0.000000 -0.000000 -0.149525 2.814361 -20.128173 0.105525 1.108094 -10.879698 0.129592 1.226655 -12.060790 0.000001 -0.000000 -0.000001 -7.736880 8.986367 -14.639665 0.589055 2.562163 -25.891220 0.348357 1.991827 -19.838684 0.000000 0.000001 0.000003 -0.112319 9.880029 22.058282 0.000000 0.000000 0.000000 7.556012 7.063309 56.310631 -0.000003 19.520831 -0.000011 -3.871946 -5.621832 1.949122 -17.631775 6.226401 -1.472148 -4.122585 -35.426477 -9.858961 2.892214 -18.401515 -20.514434 0.000002 -0.000001 0.000002 13.897244 5.063029 9.896205 0.129270 -1.090752 13.516406 0.009206 0.292938 -3.598304 0.000001 0.000000 -0.000001 -0.138558 -1.041045 7.042440 0.785986 -2.591022 33.745379 0.123920 -1.068307 13.232934 -0.000001 0.000001 -0.000001 0.562406 -5.309471 11.238683 0.534007 -2.167229 27.680979 0.310584 -1.673851 21.021891 0.000001 -0.000002 0.000000 -12.305481 -16.660356 11.028106 0.315738 -1.687207 21.197723 0.315686 -1.687064 21.195875 0.000000 0.000001 0.000003 -15.109944 -3.970850 15.186622 104.699055 7.916135 1.346087 30.164253 -2.454109 -18.931167 13.512010 3.489607 15.851465 0.000003 0.000001 0.000002 -13.102496 -0.559799 -14.453017 105.047005 0.514322 -0.624813 22.742520 2.012510 14.086586 -22.442963 -1.826969 -13.643511 -0.000000 0.000001 0.000000 
0.375021 51.703674 -12.681886 0.306170 0.351369 0.637244 1.164207 0.503392 -0.081625 -0.003815 0.122969 -0.069356 0.000000 0.000000 0.000000 0.082491 0.114775 -0.070304 -0.071077 -0.012587 0.139877 1.744315 0.480030 -0.128429 -0.000000 0.000000 -0.000000 0.612546 -3.237234 -22.011258 0.000000 0.000000 0.000000 11.987005 -15.467822 -52.997572 0.000007 -21.987776 0.000019 -5.382024 10.694936 -4.502719 -8.139815 -14.751877 10.508564 11.522790 33.951388 -1.839759 3.775259 9.818954 17.836006 -0.000003 0.000002 -0.000000 -0.453769 -5.320379 -4.184386 0.332704 1.947939 -19.383556 0.050439 0.767895 -7.515347 -0.000001 -0.000001 -0.000001 -0.401513 -0.921339 -7.463577 1.036271 3.328483 -34.578010 0.002806 -0.181636 1.772754 -0.000001 0.000001 -0.000001 -0.149531 2.814364 -20.128166 0.105526 1.108094 -10.879704 0.129590 1.226654 -12.060787 -0.000002 -0.000001 0.000003 -7.736885 8.986374 -14.639674 0.589049 2.562158 -25.891220 0.348357 1.991830 -19.838699 -0.000000 -0.000001 0.000001 -0.109608 9.836589 22.070947 0.000000 0.000000 0.000000 7.347449 6.953231 56.327897 0.000000 19.192794 0.000002 -5.078331 -5.110208 2.168249 -17.553634 6.187635 -1.350073 -4.048885 -35.369359 -9.802755 2.674067 -18.062181 -20.788762 0.000000 0.000001 -0.000003 13.900042 5.031332 9.920346 0.129434 -1.091419 13.524795 0.009098 0.291304 -3.578273 -0.000004 0.000001 0.000000 -0.138978 -1.042683 7.061646 0.786362 -2.591583 33.753716 0.124021 -1.068722 13.238181 -0.000001 0.000002 0.000004 0.563437 -5.310870 11.257977 0.534318 -2.167820 27.689332 0.311090 -1.675179 21.039303 0.000001 -0.000003 0.000001 -12.306923 -16.625896 11.059038 0.316051 -1.688016 21.208361 0.321333 -1.701545 21.386794 0.000001 -0.000001 -0.000004 -15.058318 -4.027855 15.334003 104.722926 7.820386 1.250819 30.135877 -2.418552 -18.967548 13.511747 3.489440 15.851040 0.000000 0.000000 0.000000 -13.178034 -0.583571 -14.316508 105.058206 0.386218 -0.707239 22.783580 2.094660 14.050306 -22.441681 -1.827509 -13.645320 0.000000 0.000002 -0.000000 
0.376307 51.702583 -12.690966 0.310746 0.276142 0.530230 1.124990 0.514542 -0.073508 -0.058467 0.122970 -0.059245 0.000000 0.000000 0.000000 0.068642 0.114775 -0.059990 0.083013 -0.020141 0.149842 3.133420 0.460802 -0.287752 -0.000000 -0.000000 -0.000000 0.620312 -3.169125 -21.988831 0.000000 0.000000 0.000000 12.328131 -14.761509 -53.058921 -0.000005 -23.142225 -0.000023 -4.776233 10.167337 -4.082451 -8.139814 -14.751880 10.508536 11.522784 33.951381 -1.839742 3.775267 9.818960 17.835994 0.000000 -0.000002 -0.000004 -0.453769 -5.320381 -4.184384 0.332711 1.947936 -19.383551 0.050434 0.767894 -7.515356 0.000000 -0.000001 -0.000002 -0.401512 -0.921344 -7.463579 1.036273 3.328480 -34.578017 0.002811 -0.181635 1.772740 0.000001 -0.000000 -0.000002 -0.149526 2.814363 -20.128154 0.105521 1.108090 -10.879726 0.129590 1.226660 -12.060773 0.000002 -0.000001 -0.000000 -7.736880 8.986370 -14.639667 0.589055 2.562165 -25.891222 0.348356 1.991819 -19.838705 -0.000000 0.000001 0.000000 -0.108020 9.779244 22.093357 0.000000 0.000000 0.000000 7.155699 6.738900 56.317126 -0.000011 18.933013 0.000015 -6.140817 -4.611276 2.521057 -17.448352 6.132586 -1.164792 -3.936298 -35.319267 -9.728666 2.386666 -17.518110 -21.076336 0.000002 0.000001 -0.000002 13.899342 4.991662 9.992893 0.130042 -1.093974 13.557012 0.008751 0.285662 -3.508972 -0.000006 0.000000 0.000000 -0.140427 -1.048369 7.128618 0.787808 -2.593746 33.785742 0.124414 -1.070386 13.259215 0.000002 0.000001 0.000002 0.566990 -5.315725 11.325267 0.535532 -2.170136 27.721346 0.312874 -1.679794 21.100082 0.000001 -0.000001 -0.000004 -12.302566 -16.587948 11.141782 0.317154 -1.690852 21.245754 0.329563 -1.722408 21.662353 -0.000000 0.000001 -0.000002 -15.009064 -4.068100 15.479048 104.744113 7.714872 1.167146 30.105708 -2.367780 -19.005524 13.511479 3.489279 15.850738 -0.000002 0.000000 0.000001 -13.250841 -0.610869 -14.177942 105.067796 0.269966 -0.789067 22.824211 2.162324 14.018956 -22.440247 -1.828159 -13.647753 0.000000 0.000002 -0.000000 
0.377752 51.701439 -12.699754 0.314808 0.201379 0.423124 1.084956 0.524992 -0.065189 -0.112616 0.122970 -0.049261 0.000000 0.000000 0.000000 0.054640 0.117964 -0.049826 0.235781 -0.027848 0.159711 4.512339 0.440022 -0.446023 -0.000000 -0.000000 0.000000 0.631746 -3.067925 -21.968223 0.000000 0.000000 0.000000 12.694674 -13.897988 -53.165383 0.000011 -24.452508 0.000016 -4.211900 9.725557 -3.679052 -8.139803 -14.751875 10.508574 11.522793 33.951368 -1.839769 3.775270 9.818963 17.836008 -0.000002 0.000000 0.000000 -0.453772 -5.320373 -4.184388 0.332711 1.947938 -19.383556 0.050432 0.767890 -7.515351 0.000002 -0.000001 -0.000002 -0.401513 -0.921342 -7.463581 1.036271 3.328484 -34.578014 0.002812 -0.181636 1.772735 -0.000000 0.000000 -0.000001 -0.149519 2.814367 -20.128151 0.105528 1.108087 -10.879720 0.129591 1.226661 -12.060786 0.000001 -0.000001 -0.000001 -7.736883 8.986377 -14.639643 0.589056 2.562162 -25.891224 0.348358 1.991817 -19.838716 -0.000000 0.000000 0.000003 -0.107065 9.704568 22.126627 0.000000 0.000000 0.000000 6.969239 6.423778 56.272112 0.000001 18.707391 0.000026 -7.070998 -4.108234 3.029983 -17.041136 5.892688 -0.671595 -3.772908 -35.227213 -9.621905 2.184498 -17.550748 -21.109890 -0.000000 0.000003 0.000002 13.889868 4.875644 10.288501 0.134049 -1.110473 13.765400 0.007687 0.267620 -3.287055 -0.000001 0.000000 0.000000 -0.147227 -1.075474 7.447941 0.797241 -2.607776 33.993650 0.125446 -1.074753 13.314353 0.000000 0.000000 0.000002 0.585154 -5.340283 11.666600 0.543434 -2.185089 27.929296 0.318446 -1.694161 21.289408 0.000002 -0.000001 -0.000001 -12.261075 -16.488504 11.541999 0.324505 -1.709629 21.493512 0.343157 -1.756230 22.110202 0.000001 0.000000 -0.000005 -14.964642 -4.088288 15.616949 104.762473 7.608552 1.102125 30.077076 -2.303100 -19.053610 13.510941 3.488927 15.849852 0.000006 0.000000 0.000002 -13.322450 -0.639450 -14.036916 105.076942 0.171846 -0.868095 22.864108 2.211526 13.992362 -22.439673 -1.828359 -13.648309 0.000000 -0.000001 0.000000 
